<svg width="40" height="40" viewBox="0 0 40 40" fill="none" xmlns="http://www.w3.org/2000/svg">
<path d="M26.198 16.0217C26.1347 16.0194 26.0725 16.0142 26.0085 16.0142H14.0637C14.0548 16.0142 14.0462 16.013 14.0373 16.0129V16.0076C14.0219 16.008 14.007 16.0099 13.9916 16.0099L13.9612 16.0092C13.4413 15.9908 12.9477 15.7766 12.5792 15.4094C12.2107 15.0423 11.9947 14.5494 11.9745 14.0296C11.9651 13.5248 12.1449 13.0347 12.4785 12.6557C12.8121 12.2767 13.2754 12.0362 13.7774 11.9814C13.8583 11.9763 13.9314 11.9732 13.9916 11.9732C14.007 11.9732 14.0219 11.9751 14.0373 11.9755V11.9692C14.9526 11.9692 36 11.9689 36 11.9689V4.00013L14.0346 4L14.032 4.00104C14.0185 4.0008 14.0051 4.00002 13.9916 4.00002C11.3417 4.00002 8.80025 5.0527 6.92647 6.92647C5.05268 8.80025 4 11.3416 4 13.9916C4 16.6415 5.05268 19.1829 6.92647 21.0566C8.80025 22.9304 11.3417 23.9831 13.9916 23.9831L14.0275 23.9822L14.0346 23.9833H25.9628V23.9924C25.9781 23.9921 25.9931 23.9901 26.0085 23.9901C26.0635 23.9901 26.1301 23.993 26.2026 23.9973C26.7063 24.0545 27.1701 24.2988 27.5022 24.6818C27.8343 25.0648 28.0104 25.5586 27.9956 26.0654C27.9808 26.5721 27.7761 27.0548 27.4222 27.4178C27.0684 27.7808 26.591 27.9976 26.0848 28.0252C26.0586 28.026 26.0315 28.027 26.0085 28.027C25.9931 28.027 25.9781 28.025 25.9628 28.0246V28.0309H4.0001V36H26.0085C28.6418 36.0003 31.1688 34.9609 33.0397 33.1078C34.9107 31.2548 35.9744 28.7379 35.9993 26.1047C36.0243 23.4715 35.0086 20.9349 33.1731 19.0467C31.3376 17.1585 28.8308 16.0713 26.198 16.0217V16.0217Z" fill="url(#paint0_linear_1966_55)"/>
<defs>
<linearGradient id="paint0_linear_1966_55" x1="4.41552" y1="4.41561" x2="34.8089" y2="34.8092" gradientUnits="userSpaceOnUse">
<stop offset="0.27698" stop-color="#3BEA62"/>
<stop offset="0.83781" stop-color="#087CFA"/>
</linearGradient>
</defs>
</svg>
